<?xml version="1.0" encoding="utf-8"?>
<!-- Generator: Adobe Illustrator 17.1.0, SVG Export Plug-In . SVG Version: 6.00 Build 0)  -->
<!DOCTYPE svg PUBLIC "-//W3C//DTD SVG 1.1//EN" "http://www.w3.org/Graphics/SVG/1.1/DTD/svg11.dtd">
<svg version="1.1" id="Layer_1" xmlns="http://www.w3.org/2000/svg" xmlns:xlink="http://www.w3.org/1999/xlink" x="0px" y="0px"
	 viewBox="0 0 1024 1024" enable-background="new 0 0 1024 1024" xml:space="preserve">
<g>
	<path fill="#FFFFFF" d="M511.2,1008.2c-67.1,0-132.2-13.1-193.5-39.1c-59.2-25-112.3-60.9-158-106.5
		c-45.6-45.6-81.5-98.8-106.5-158c-25.9-61.3-39.1-126.4-39.1-193.5c0-67.1,13.1-132.2,39.1-193.5c25-59.2,60.9-112.3,106.5-158
		c45.6-45.6,98.8-81.5,158-106.5C379,27.3,444.1,14.2,511.2,14.2c67.1,0,132.2,13.1,193.5,39.1c59.2,25,112.3,60.9,158,106.5
		c45.6,45.6,81.5,98.8,106.5,158c25.9,61.3,39.1,126.4,39.1,193.5c0,67.1-13.1,132.2-39.1,193.5c-25,59.2-60.9,112.3-106.5,158
		c-45.6,45.6-98.8,81.5-158,106.5C643.4,995.1,578.3,1008.2,511.2,1008.2z"/>
	<path d="M511.2,22.2c66,0,130.1,12.9,190.3,38.4c58.2,24.6,110.5,59.9,155.4,104.8c44.9,44.9,80.2,97.2,104.8,155.4
		c25.5,60.3,38.4,124.3,38.4,190.3s-12.9,130.1-38.4,190.3C937.1,759.8,901.9,812.1,857,857c-44.9,44.9-97.2,80.2-155.4,104.8
		c-60.3,25.5-124.3,38.4-190.3,38.4s-130.1-12.9-190.3-38.4c-58.2-24.6-110.5-59.9-155.4-104.8c-44.9-44.9-80.2-97.2-104.8-155.4
		c-25.5-60.3-38.4-124.3-38.4-190.3s12.9-130.1,38.4-190.3c24.6-58.2,59.9-110.5,104.8-155.4c44.9-44.9,97.2-80.2,155.4-104.8
		C381.1,35.1,445.2,22.2,511.2,22.2 M511.2,6.2c-278.9,0-505,226.1-505,505s226.1,505,505,505s505-226.1,505-505
		S790.1,6.2,511.2,6.2L511.2,6.2z"/>
</g>
<circle fill="#898989" cx="511.2" cy="512" r="438.4"/>
<path fill="#FFFFFF" d="M579,765c0,39.2-31.8,71-71,71l0,0c-39.2,0-71-31.8-71-71V263c0-39.2,31.8-71,71-71l0,0
	c39.2,0,71,31.8,71,71V765z"/>
<path fill="#FFFFFF" d="M759,443c39.2,0,71,31.8,71,71l0,0c0,39.2-31.8,71-71,71H257c-39.2,0-71-31.8-71-71l0,0
	c0-39.2,31.8-71,71-71H759z"/>
</svg>
