<?xml version="1.0" encoding="utf-8"?>
<!-- Generator: Adobe Illustrator 17.1.0, SVG Export Plug-In . SVG Version: 6.00 Build 0)  -->
<!DOCTYPE svg PUBLIC "-//W3C//DTD SVG 1.1//EN" "http://www.w3.org/Graphics/SVG/1.1/DTD/svg11.dtd">
<svg version="1.1" id="Layer_1" xmlns="http://www.w3.org/2000/svg" xmlns:xlink="http://www.w3.org/1999/xlink" x="0px" y="0px"
	 viewBox="0 0 1024 1024" enable-background="new 0 0 1024 1024" xml:space="preserve">
<g>
	<path fill="#FFFFFF" d="M511.2,1008.2c-67.1,0-132.2-13.1-193.5-39.1c-59.2-25-112.3-60.9-158-106.5
		c-45.6-45.6-81.5-98.8-106.5-158c-25.9-61.3-39.1-126.4-39.1-193.5c0-67.1,13.1-132.2,39.1-193.5c25-59.2,60.9-112.3,106.5-158
		c45.6-45.6,98.8-81.5,158-106.5C379,27.3,444.1,14.2,511.2,14.2c67.1,0,132.2,13.1,193.5,39.1c59.2,25,112.3,60.9,158,106.5
		c45.6,45.6,81.5,98.8,106.5,158c25.9,61.3,39.1,126.4,39.1,193.5c0,67.1-13.1,132.2-39.1,193.5c-25,59.2-60.9,112.3-106.5,158
		c-45.6,45.6-98.8,81.5-158,106.5C643.4,995.1,578.3,1008.2,511.2,1008.2z"/>
	<path d="M511.2,22.2c66,0,130.1,12.9,190.3,38.4c58.2,24.6,110.5,59.9,155.4,104.8c44.9,44.9,80.2,97.2,104.8,155.4
		c25.5,60.3,38.4,124.3,38.4,190.3s-12.9,130.1-38.4,190.3C937.1,759.8,901.9,812.1,857,857c-44.9,44.9-97.2,80.2-155.4,104.8
		c-60.3,25.5-124.3,38.4-190.3,38.4s-130.1-12.9-190.3-38.4c-58.2-24.6-110.5-59.9-155.4-104.8c-44.9-44.9-80.2-97.2-104.8-155.4
		c-25.5-60.3-38.4-124.3-38.4-190.3s12.9-130.1,38.4-190.3c24.6-58.2,59.9-110.5,104.8-155.4c44.9-44.9,97.2-80.2,155.4-104.8
		C381.1,35.1,445.2,22.2,511.2,22.2 M511.2,6.2c-278.9,0-505,226.1-505,505s226.1,505,505,505s505-226.1,505-505
		S790.1,6.2,511.2,6.2L511.2,6.2z"/>
</g>
<g>
	<path fill="#898989" d="M511.2,594.4c145.4,0,267.1,100,301.1,234.9c84.4-79.9,137.3-192.7,137.3-318.1
		c0-242.1-196.3-438.4-438.4-438.4c-242.1,0-438.4,196.3-438.4,438.4c0,125.4,52.9,238.2,137.4,318.1
		C244.1,694.4,365.8,594.4,511.2,594.4z"/>
	<path fill="#FFFFFF" d="M305.9,433.5c0-113.4,91.9-205.3,205.3-205.3s205.3,91.9,205.3,205.3c0,113.4-91.9,205.3-205.3,205.3
		S305.9,546.9,305.9,433.5z"/>
	<path fill="#FFFFFF" d="M812.3,829.3c-33.9-134.9-155.7-234.9-301.1-234.9s-267.1,100-301,234.9c78.6,74.4,184.3,120.3,301,120.3
		C627.9,949.6,733.7,903.7,812.3,829.3z"/>
</g>
</svg>
